# This file uses centimeters as units for non-parametric coordinates.

v 9.510571 0.000000 -3.090172
v 8.090176 0.000000 -5.877856
v 5.877856 0.000000 -8.090175
v 3.090172 0.000000 -9.510571
v 0.000000 0.000000 -10.000005
v -3.090172 0.000000 -9.510570
v -5.877855 0.000000 -8.090173
v -8.090173 0.000000 -5.877854
v -9.510568 0.000000 -3.090171
v -10.000002 0.000000 0.000000
v -9.510568 0.000000 3.090171
v -8.090172 0.000000 5.877853
v -5.877853 0.000000 8.090171
v -3.090171 0.000000 9.510567
v 0.000000 0.000000 10.000001
v 3.090170 0.000000 9.510566
v 5.877852 0.000000 8.090171
v 8.090170 0.000000 5.877853
v 9.510566 0.000000 3.090170
v 10.000000 0.000000 0.000000
v 0.000000 16.000000 0.000000
v 9.510571 0.000000 -3.090172
v 8.090176 0.000000 -5.877856
v 5.877856 0.000000 -8.090175
v 3.090172 0.000000 -9.510571
v 0.000000 0.000000 -10.000005
v -3.090172 0.000000 -9.510570
v -5.877855 0.000000 -8.090173
v -8.090173 0.000000 -5.877854
v -9.510568 0.000000 -3.090171
v -10.000002 0.000000 0.000000
v -9.510568 0.000000 3.090171
v -8.090172 0.000000 5.877853
v -5.877853 0.000000 8.090171
v -3.090171 0.000000 9.510567
v 0.000000 0.000000 10.000001
v 3.090170 0.000000 9.510566
v 5.877852 0.000000 8.090171
v 8.090170 0.000000 5.877853
v 9.510566 0.000000 3.090170
v 10.000000 0.000000 0.000000
v 0.000000 16.000000 0.000000
vt 0.250000 0.500000
vt 0.275000 0.500000
vt 0.500000 1.000000
vt 0.300000 0.500000
vt 0.325000 0.500000
vt 0.350000 0.500000
vt 0.375000 0.500000
vt 0.400000 0.500000
vt 0.425000 0.500000
vt 0.450000 0.500000
vt 0.475000 0.500000
vt 0.500000 0.500000
vt 0.525000 0.500000
vt 0.550000 0.500000
vt 0.575000 0.500000
vt 0.600000 0.500000
vt 0.625000 0.500000
vt 0.650000 0.500000
vt 0.675000 0.500000
vt 0.700000 0.500000
vt 0.725000 0.500000
vt 0.750000 0.500000
vt 0.250000 0.500000
vt 0.275000 0.500000
vt 0.500000 1.000000
vt 0.300000 0.500000
vt 0.325000 0.500000
vt 0.350000 0.500000
vt 0.375000 0.500000
vt 0.400000 0.500000
vt 0.425000 0.500000
vt 0.450000 0.500000
vt 0.475000 0.500000
vt 0.500000 0.500000
vt 0.525000 0.500000
vt 0.550000 0.500000
vt 0.575000 0.500000
vt 0.600000 0.500000
vt 0.625000 0.500000
vt 0.650000 0.500000
vt 0.675000 0.500000
vt 0.700000 0.500000
vt 0.725000 0.500000
vt 0.750000 0.500000
vn 0.806494 0.529999 -0.262045
vn 0.686045 0.529999 -0.498441
vn 0.000000 1.000000 0.000000
vn 0.686045 0.529999 -0.498441
vn 0.498441 0.529999 -0.686045
vn 0.000000 1.000000 0.000000
vn 0.498441 0.529999 -0.686045
vn 0.262046 0.529999 -0.806494
vn 0.000000 1.000000 0.000000
vn 0.262046 0.529999 -0.806494
vn -0.000000 0.529999 -0.847998
vn 0.000000 1.000000 0.000000
vn -0.000000 0.529999 -0.847998
vn -0.262046 0.529999 -0.806494
vn 0.000000 1.000000 0.000000
vn -0.262046 0.529999 -0.806494
vn -0.498441 0.529999 -0.686045
vn 0.000000 1.000000 0.000000
vn -0.498441 0.529999 -0.686045
vn -0.686045 0.529999 -0.498441
vn 0.000000 1.000000 0.000000
vn -0.686045 0.529999 -0.498441
vn -0.806494 0.529999 -0.262046
vn 0.000000 1.000000 0.000000
vn -0.806494 0.529999 -0.262046
vn -0.847998 0.529999 0.000000
vn 0.000000 1.000000 0.000000
vn -0.847998 0.529999 0.000000
vn -0.806494 0.529999 0.262046
vn 0.000000 1.000000 0.000000
vn -0.806494 0.529999 0.262046
vn -0.686045 0.529999 0.498441
vn 0.000000 1.000000 0.000000
vn -0.686045 0.529999 0.498441
vn -0.498441 0.529999 0.686045
vn 0.000000 1.000000 0.000000
vn -0.498441 0.529999 0.686045
vn -0.262046 0.529999 0.806494
vn 0.000000 1.000000 0.000000
vn -0.262046 0.529999 0.806494
vn 0.000000 0.529999 0.847998
vn 0.000000 1.000000 0.000000
vn 0.000000 0.529999 0.847998
vn 0.262046 0.529999 0.806494
vn 0.000000 1.000000 0.000000
vn 0.262046 0.529999 0.806494
vn 0.498441 0.529999 0.686045
vn 0.000000 1.000000 0.000000
vn 0.498441 0.529999 0.686045
vn 0.686045 0.529999 0.498441
vn 0.000000 1.000000 0.000000
vn 0.686045 0.529999 0.498441
vn 0.806494 0.529999 0.262046
vn 0.000000 1.000000 0.000000
vn 0.806494 0.529999 0.262046
vn 0.847998 0.529999 0.000001
vn 0.000000 1.000000 0.000000
vn 0.847998 0.529999 0.000001
vn 0.806494 0.529999 -0.262045
vn 0.000000 1.000000 0.000000
vn 0.806494 0.529999 -0.262045
vn 0.686045 0.529999 -0.498441
vn 0.000000 1.000000 0.000000
vn 0.686045 0.529999 -0.498441
vn 0.498441 0.529999 -0.686045
vn 0.000000 1.000000 0.000000
vn 0.498441 0.529999 -0.686045
vn 0.262046 0.529999 -0.806494
vn 0.000000 1.000000 0.000000
vn 0.262046 0.529999 -0.806494
vn -0.000000 0.529999 -0.847998
vn 0.000000 1.000000 0.000000
vn -0.000000 0.529999 -0.847998
vn -0.262046 0.529999 -0.806494
vn 0.000000 1.000000 0.000000
vn -0.262046 0.529999 -0.806494
vn -0.498441 0.529999 -0.686045
vn 0.000000 1.000000 0.000000
vn -0.498441 0.529999 -0.686045
vn -0.686045 0.529999 -0.498441
vn 0.000000 1.000000 0.000000
vn -0.686045 0.529999 -0.498441
vn -0.806494 0.529999 -0.262046
vn 0.000000 1.000000 0.000000
vn -0.806494 0.529999 -0.262046
vn -0.847998 0.529999 0.000000
vn 0.000000 1.000000 0.000000
vn -0.847998 0.529999 0.000000
vn -0.806494 0.529999 0.262046
vn 0.000000 1.000000 0.000000
vn -0.806494 0.529999 0.262046
vn -0.686045 0.529999 0.498441
vn 0.000000 1.000000 0.000000
vn -0.686045 0.529999 0.498441
vn -0.498441 0.529999 0.686045
vn 0.000000 1.000000 0.000000
vn -0.498441 0.529999 0.686045
vn -0.262046 0.529999 0.806494
vn 0.000000 1.000000 0.000000
vn -0.262046 0.529999 0.806494
vn 0.000000 0.529999 0.847998
vn 0.000000 1.000000 0.000000
vn 0.000000 0.529999 0.847998
vn 0.262046 0.529999 0.806494
vn 0.000000 1.000000 0.000000
vn 0.262046 0.529999 0.806494
vn 0.498441 0.529999 0.686045
vn 0.000000 1.000000 0.000000
vn 0.498441 0.529999 0.686045
vn 0.686045 0.529999 0.498441
vn 0.000000 1.000000 0.000000
vn 0.686045 0.529999 0.498441
vn 0.806494 0.529999 0.262046
vn 0.000000 1.000000 0.000000
vn 0.806494 0.529999 0.262046
vn 0.847998 0.529999 0.000001
vn 0.000000 1.000000 0.000000
vn 0.847998 0.529999 0.000001
vn 0.806494 0.529999 -0.262045
vn 0.000000 1.000000 0.000000
s off
f 1/1/1 2/2/2 21/3/3
f 2/2/4 3/4/5 21/3/6
f 3/4/7 4/5/8 21/3/9
f 4/5/10 5/6/11 21/3/12
f 5/6/13 6/7/14 21/3/15
f 6/7/16 7/8/17 21/3/18
f 7/8/19 8/9/20 21/3/21
f 8/9/22 9/10/23 21/3/24
f 9/10/25 10/11/26 21/3/27
f 10/11/28 11/12/29 21/3/30
f 11/12/31 12/13/32 21/3/33
f 12/13/34 13/14/35 21/3/36
f 13/14/37 14/15/38 21/3/39
f 14/15/40 15/16/41 21/3/42
f 15/16/43 16/17/44 21/3/45
f 16/17/46 17/18/47 21/3/48
f 17/18/49 18/19/50 21/3/51
f 18/19/52 19/20/53 21/3/54
f 19/20/55 20/21/56 21/3/57
f 20/21/58 1/22/59 21/3/60
f 22/23/61 23/24/62 42/25/63
f 23/24/64 24/26/65 42/25/66
f 24/26/67 25/27/68 42/25/69
f 25/27/70 26/28/71 42/25/72
f 26/28/73 27/29/74 42/25/75
f 27/29/76 28/30/77 42/25/78
f 28/30/79 29/31/80 42/25/81
f 29/31/82 30/32/83 42/25/84
f 30/32/85 31/33/86 42/25/87
f 31/33/88 32/34/89 42/25/90
f 32/34/91 33/35/92 42/25/93
f 33/35/94 34/36/95 42/25/96
f 34/36/97 35/37/98 42/25/99
f 35/37/100 36/38/101 42/25/102
f 36/38/103 37/39/104 42/25/105
f 37/39/106 38/40/107 42/25/108
f 38/40/109 39/41/110 42/25/111
f 39/41/112 40/42/113 42/25/114
f 40/42/115 41/43/116 42/25/117
f 41/43/118 22/44/119 42/25/120
